<svg width="512" height="512" viewBox="0 0 512 512" fill="none" xmlns="http://www.w3.org/2000/svg">
<path d="M217.5 0H32.5C14.58 0 0 14.58 0 32.5V301.5C0 318.578 13.244 332.612 30 333.894V414.5C30 429.664 42.336 442 57.5 442H146.287C152.297 442 157.948 439.66 162.197 435.41L213.41 384.197C217.66 379.947 220 374.297 220 368.287V333.895C236.756 332.613 250 318.579 250 301.501V118.17C250 114.028 246.642 110.67 242.5 110.67C238.358 110.67 235 114.028 235 118.17V301.5C235 310.298 228.466 317.581 220 318.8V207.5C220 192.336 207.664 180 192.5 180H57.5C42.336 180 30 192.336 30 207.5V244.362C30 248.504 33.358 251.862 37.5 251.862C41.642 251.862 45 248.504 45 244.362V207.5C45 200.607 50.607 195 57.5 195H192.5C199.393 195 205 200.607 205 207.5V367H172.5C157.336 367 145 379.336 145 394.5V427H57.5C50.607 427 45 421.393 45 414.5V279.213C45 275.071 41.642 271.713 37.5 271.713C33.358 271.713 30 275.071 30 279.213V318.8C21.534 317.58 15 310.298 15 301.5V32.5C15 30.714 15.272 28.991 15.771 27.367L35.25 48.255C40.433 53.813 47.764 57 55.363 57H118V83.906C106.216 87.01 97.5 97.755 97.5 110.5C97.5 125.664 109.836 138 125 138C140.164 138 152.5 125.664 152.5 110.5C152.5 98.118 144.273 87.625 133 84.19V57H194.637C202.236 57 209.567 53.812 214.749 48.255L234.229 27.366C234.729 28.99 235 30.713 235 32.499V83.126C235 87.268 238.358 90.626 242.5 90.626C246.642 90.626 250 87.268 250 83.126V32.5C250 14.58 235.42 0 217.5 0V0ZM160 394.5C160 387.607 165.607 382 172.5 382H194.394L160 416.394V394.5ZM137.5 110.5C137.5 117.393 131.893 123 125 123C118.107 123 112.5 117.393 112.5 110.5C112.5 103.607 118.107 98 125 98C131.893 98 137.5 103.607 137.5 110.5ZM203.779 38.025C201.424 40.551 198.091 42 194.637 42H55.363C51.909 42 48.577 40.551 46.221 38.025L25.948 16.285C27.974 15.463 30.183 15 32.5 15H217.5C219.818 15 222.027 15.463 224.053 16.285L203.779 38.025Z" fill="#2ABFB0"/>
<path d="M489.5 177H287.5C275.094 177 265 187.093 265 199.5V291.5C265 303.907 275.094 314 287.5 314H489.5C501.906 314 512 303.907 512 291.5V199.5C512 187.093 501.906 177 489.5 177ZM484.489 192L395.1 247.567C391.028 250.097 385.97 250.097 381.902 247.567L292.511 192H484.489ZM280.002 291.541C280.002 291.527 280 291.514 280 291.5V201.885L354.642 248.283L280.002 291.541ZM297.045 299L369.075 257.256L373.982 260.307C378.46 263.09 383.479 264.482 388.5 264.482C393.521 264.482 398.54 263.09 403.019 260.307L407.458 257.547L479.798 299H297.045ZM497 291.5C497 291.523 496.997 291.545 496.997 291.568L421.929 248.552L497 201.885V291.5Z" fill="#2ABFB0"/>
<path d="M489.5 25H287.5C275.094 25 265 35.093 265 47.5V139.5C265 151.907 275.094 162 287.5 162H424.149C428.292 162 431.649 158.642 431.649 154.5C431.649 150.358 428.292 147 424.149 147H287.5C283.364 147 280 143.636 280 139.5V47.5C280 43.364 283.364 40 287.5 40H489.5C493.636 40 497 43.364 497 47.5V139.5C497 143.636 493.636 147 489.5 147H458.937C454.794 147 451.437 150.358 451.437 154.5C451.437 158.642 454.794 162 458.937 162H489.5C501.906 162 512 151.907 512 139.5V47.5C512 35.093 501.906 25 489.5 25Z" fill="#2ABFB0"/>
<path d="M225.5 467H167.936C163.794 467 160.436 470.358 160.436 474.5C160.436 478.642 163.794 482 167.936 482H193.566V497H37.568C36.204 497 34.866 496.628 33.697 495.924L23.034 489.5L33.698 483.076C34.866 482.372 36.205 482 37.569 482H132.831C136.973 482 140.331 478.642 140.331 474.5C140.331 470.358 136.973 467 132.831 467H37.568C33.477 467 29.462 468.116 25.957 470.227L6.05301 482.218C3.51401 483.747 1.93701 486.537 1.93701 489.5C1.93701 492.463 3.51401 495.253 6.05101 496.781L25.956 508.773C29.461 510.884 33.476 512 37.567 512H225.5C237.907 512 248 501.907 248 489.5C248 477.093 237.907 467 225.5 467ZM225.5 497H208.566V482H225.5C229.636 482 233 485.364 233 489.5C233 493.636 229.636 497 225.5 497Z" fill="#2ABFB0"/>
<path d="M444.5 339H334.5C319.337 339 307 351.336 307 366.5V459.5C307 474.664 319.337 487 334.5 487H444.5C459.663 487 472 474.664 472 459.5C472 436.297 472 389.605 472 366.5C472 351.336 459.663 339 444.5 339ZM457 459.5C457 466.393 451.393 472 444.5 472H334.5C327.607 472 322 466.393 322 459.5V440.982C325.753 442.906 330 444 334.5 444H444.5C449 444 453.247 442.907 457 440.982V459.5ZM457 415.923V416.5C457 423.393 451.393 429 444.5 429H334.5C327.607 429 322 423.393 322 416.5C322 415.578 322 367.163 322 366.5C322 359.607 327.607 354 334.5 354H444.5C451.393 354 457 359.607 457 366.5V415.923Z" fill="#2ABFB0"/>
<path d="M82.5 255C94.907 255 105 244.907 105 232.5C105 220.093 94.907 210 82.5 210C70.093 210 60 220.093 60 232.5C60 244.907 70.093 255 82.5 255ZM82.5 225C86.636 225 90 228.364 90 232.5C90 236.636 86.636 240 82.5 240C78.364 240 75 236.636 75 232.5C75 228.364 78.364 225 82.5 225Z" fill="#2ABFB0"/>
<path d="M359.5 369C347.094 369 337 379.093 337 391.5C337 403.907 347.094 414 359.5 414C371.906 414 382 403.907 382 391.5C382 379.093 371.906 369 359.5 369ZM359.5 399C355.364 399 352 395.636 352 391.5C352 387.364 355.364 384 359.5 384C363.636 384 367 387.364 367 391.5C367 395.636 363.636 399 359.5 399Z" fill="#2ABFB0"/>
<path d="M295 109.5C295 121.907 305.094 132 317.5 132C329.906 132 340 121.907 340 109.5C340 97.093 329.906 87 317.5 87C305.094 87 295 97.093 295 109.5ZM325 109.5C325 113.636 321.636 117 317.5 117C313.364 117 310 113.636 310 109.5C310 105.364 313.364 102 317.5 102C321.636 102 325 105.364 325 109.5Z" fill="#2ABFB0"/>
<path d="M129.5 225H162.5C166.642 225 170 221.642 170 217.5C170 213.358 166.642 210 162.5 210H129.5C125.358 210 122 213.358 122 217.5C122 221.642 125.358 225 129.5 225Z" fill="#2ABFB0"/>
<path d="M129.5 255H181.5C185.642 255 189 251.642 189 247.5C189 243.358 185.642 240 181.5 240H129.5C125.358 240 122 243.358 122 247.5C122 251.642 125.358 255 129.5 255Z" fill="#2ABFB0"/>
<path d="M403.5 384H415.5C419.643 384 423 380.642 423 376.5C423 372.358 419.643 369 415.5 369H403.5C399.357 369 396 372.358 396 376.5C396 380.642 399.357 384 403.5 384Z" fill="#2ABFB0"/>
<path d="M434.5 399H403.5C399.357 399 396 402.358 396 406.5C396 410.642 399.357 414 403.5 414H434.5C438.643 414 442 410.642 442 406.5C442 402.358 438.643 399 434.5 399Z" fill="#2ABFB0"/>
<path d="M362.5 102H395.5C399.643 102 403 98.642 403 94.5C403 90.358 399.643 87 395.5 87H362.5C358.357 87 355 90.358 355 94.5C355 98.642 358.357 102 362.5 102Z" fill="#2ABFB0"/>
<path d="M362.5 132H414.5C418.643 132 422 128.642 422 124.5C422 120.358 418.643 117 414.5 117H362.5C358.357 117 355 120.358 355 124.5C355 128.642 358.357 132 362.5 132Z" fill="#2ABFB0"/>
<path d="M415.5 215.5C415.5 211.358 412.143 208 408 208H369C364.857 208 361.5 211.358 361.5 215.5C361.5 219.642 364.857 223 369 223H408C412.143 223 415.5 219.642 415.5 215.5Z" fill="#2ABFB0"/>
<path d="M67.5 412H102.5C106.642 412 110 408.642 110 404.5C110 400.358 106.642 397 102.5 397H67.5C63.358 397 60 400.358 60 404.5C60 408.642 63.358 412 67.5 412Z" fill="#2ABFB0"/>
</svg>
