<svg width="512" height="512" viewBox="0 0 512 512" fill="none" xmlns="http://www.w3.org/2000/svg">
<path d="M45.9414 147.789H67.2617C71.3984 147.789 74.7539 144.434 74.7539 140.297C74.7539 136.156 71.3984 132.801 67.2617 132.801H45.9414C41.8008 132.801 38.4453 136.156 38.4453 140.297C38.4453 144.434 41.8008 147.789 45.9414 147.789Z" fill="#2ABFB0"/>
<path d="M221.219 132.801H91.1367C87 132.801 83.6445 136.156 83.6445 140.297C83.6445 144.434 87 147.789 91.1367 147.789H221.219C225.359 147.789 228.715 144.434 228.715 140.297C228.715 136.156 225.359 132.801 221.219 132.801Z" fill="#2ABFB0"/>
<path d="M201.461 170.785H153.891C149.75 170.785 146.395 174.137 146.395 178.277C146.395 182.418 149.75 185.77 153.891 185.77H201.461C205.598 185.77 208.953 182.418 208.953 178.277C208.953 174.137 205.598 170.785 201.461 170.785Z" fill="#2ABFB0"/>
<path d="M129.008 170.785H114.18C110.043 170.785 106.688 174.137 106.688 178.277C106.688 182.418 110.043 185.77 114.18 185.77H129.008C133.148 185.77 136.504 182.418 136.504 178.277C136.504 174.137 133.148 170.785 129.008 170.785Z" fill="#2ABFB0"/>
<path d="M90.3164 170.785H45.9414C41.8008 170.785 38.4453 174.137 38.4453 178.277C38.4453 182.418 41.8008 185.77 45.9414 185.77H90.3164C94.4531 185.77 97.8086 182.418 97.8086 178.277C97.8086 174.137 94.4531 170.785 90.3164 170.785Z" fill="#2ABFB0"/>
<path d="M33.2734 50.7539C33.2734 62.8789 43.1367 72.7422 55.2617 72.7422C67.3867 72.7422 77.2539 62.8789 77.2539 50.7539C77.2539 38.6289 67.3867 28.7617 55.2617 28.7617C43.1367 28.7617 33.2734 38.6289 33.2734 50.7539ZM62.2656 50.7539C62.2656 54.6133 59.1211 57.7578 55.2617 57.7578C51.3984 57.7578 48.2578 54.6133 48.2578 50.7539C48.2578 46.8906 51.3984 43.75 55.2617 43.75C59.1211 43.75 62.2656 46.8906 62.2656 50.7539Z" fill="#2ABFB0"/>
<path d="M89.2578 50.7539C89.2578 62.8789 99.125 72.7422 111.25 72.7422C123.375 72.7422 133.238 62.8789 133.238 50.7539C133.238 38.6289 123.375 28.7617 111.25 28.7617C99.125 28.7617 89.2578 38.6289 89.2578 50.7539ZM118.25 50.7539C118.25 54.6133 115.109 57.7578 111.246 57.7578C107.387 57.7578 104.242 54.6133 104.242 50.7539C104.242 46.8906 107.387 43.75 111.246 43.75C115.109 43.75 118.25 46.8906 118.25 50.7539Z" fill="#2ABFB0"/>
<path d="M145.246 50.7539C145.246 62.8789 155.109 72.7422 167.234 72.7422C179.359 72.7422 189.223 62.8789 189.223 50.7539C189.223 38.6289 179.359 28.7617 167.234 28.7617C155.109 28.7617 145.246 38.6289 145.246 50.7539ZM174.238 50.7539C174.238 54.6133 171.098 57.7578 167.234 57.7578C163.375 57.7578 160.23 54.6133 160.23 50.7539C160.23 46.8906 163.375 43.75 167.234 43.75C171.098 43.75 174.238 46.8906 174.238 50.7539Z" fill="#2ABFB0"/>
<path d="M416.457 492.719H441.469C445.605 492.719 448.961 489.363 448.961 485.227C448.961 481.086 445.605 477.73 441.469 477.73H416.457C412.316 477.73 408.961 481.086 408.961 485.227C408.961 489.363 412.316 492.719 416.457 492.719Z" fill="#2ABFB0"/>
<path d="M414.277 233.852H405.652C401.516 233.852 398.16 237.203 398.16 241.344C398.16 245.484 401.516 248.836 405.652 248.836H414.277C418.418 248.836 421.773 245.484 421.773 241.344C421.773 237.203 418.418 233.852 414.277 233.852Z" fill="#2ABFB0"/>
<path d="M452.27 233.852H435.32C431.184 233.852 427.828 237.203 427.828 241.344C427.828 245.484 431.184 248.836 435.32 248.836H452.27C456.406 248.836 459.762 245.484 459.762 241.344C459.762 237.203 456.406 233.852 452.27 233.852Z" fill="#2ABFB0"/>
<path d="M511.43 32.9805C511.43 14.7969 496.637 0 478.453 0H414.523C410.383 0 407.031 3.35547 407.031 7.49219C407.031 11.6328 410.383 14.9883 414.523 14.9883H478.453C488.375 14.9883 496.445 23.0586 496.445 32.9805V86.9414H14.9883V32.9805C14.9883 23.0586 23.0586 14.9883 32.9805 14.9883H367.898C372.039 14.9883 375.391 11.6328 375.391 7.49219C375.391 3.35547 372.039 0 367.898 0H32.9805C14.793 0 0 14.7969 0 32.9805V395.547C0 413.73 14.793 428.527 32.9805 428.527H178.785V455.398H156.16C141.066 455.398 128.789 467.68 128.789 482.77V498.957C128.789 505.844 134.391 511.449 141.277 511.449L488.562 511.906C501.488 511.906 512 501.391 512 488.469V464.762L511.43 32.9805ZM32.9805 413.539C23.0586 413.539 14.9883 405.469 14.9883 395.547V367.125H345.922V413.539H32.9805ZM332.645 428.527H345.922V455.398H332.645V428.527ZM317.66 428.527V455.398H193.77V428.527H317.66ZM143.773 496.461V482.77C143.773 475.945 149.332 470.387 156.16 470.387H345.922V488.469C345.922 491.273 346.418 493.965 347.328 496.461H143.773ZM497.012 488.469C497.012 493.129 493.223 496.918 488.562 496.918H369.359C364.699 496.918 360.91 493.129 360.91 488.469V472.254H497.012V488.469ZM497.012 457.266H360.91V326.555C360.91 322.418 357.555 319.062 353.418 319.062C349.277 319.062 345.922 322.418 345.922 326.555V352.137H14.9883V101.93H496.445V216.598C493.98 215.715 491.328 215.23 488.562 215.23H369.359C356.438 215.23 345.922 225.746 345.922 238.668V280.93C345.922 285.07 349.277 288.422 353.418 288.422C357.555 288.422 360.91 285.07 360.91 280.93V269.871H497.012V457.266ZM497.012 254.887H360.91V238.668C360.91 234.012 364.699 230.219 369.359 230.219H488.562C493.223 230.219 497.016 234.012 497.016 238.668V254.887H497.012Z" fill="#2ABFB0"/>
<path d="M376.027 306.785H403.652C407.789 306.785 411.145 303.43 411.145 299.293C411.145 295.152 407.789 291.797 403.652 291.797H376.027C371.887 291.797 368.535 295.152 368.535 299.293C368.535 303.43 371.887 306.785 376.027 306.785Z" fill="#2ABFB0"/>
<path d="M425.117 306.785H436.902C441.039 306.785 444.395 303.43 444.395 299.293C444.395 295.152 441.039 291.797 436.902 291.797H425.117C420.98 291.797 417.625 295.152 417.625 299.293C417.625 303.43 420.98 306.785 425.117 306.785Z" fill="#2ABFB0"/>
<path d="M456.602 306.785H481.895C486.035 306.785 489.391 303.43 489.391 299.293C489.391 295.152 486.035 291.797 481.895 291.797H456.602C452.465 291.797 449.109 295.152 449.109 299.293C449.109 303.43 452.465 306.785 456.602 306.785Z" fill="#2ABFB0"/>
<path d="M376.027 340.48H388.32C392.461 340.48 395.816 337.125 395.816 332.984C395.816 328.848 392.461 325.492 388.32 325.492H376.027C371.887 325.492 368.535 328.848 368.535 332.984C368.535 337.125 371.887 340.48 376.027 340.48Z" fill="#2ABFB0"/>
<path d="M451.672 332.984C451.672 328.848 448.32 325.492 444.18 325.492H408.996C404.859 325.492 401.504 328.848 401.504 332.984C401.504 337.125 404.859 340.48 408.996 340.48H444.18C448.32 340.48 451.672 337.125 451.672 332.984Z" fill="#2ABFB0"/>
<path d="M481.895 325.492H468C463.863 325.492 460.508 328.848 460.508 332.984C460.508 337.125 463.863 340.48 468 340.48H481.895C486.035 340.48 489.391 337.125 489.391 332.984C489.391 328.848 486.035 325.492 481.895 325.492Z" fill="#2ABFB0"/>
<path d="M376.027 371.48H400.617C404.754 371.48 408.109 368.125 408.109 363.988C408.109 359.848 404.754 356.492 400.617 356.492H376.027C371.887 356.492 368.535 359.848 368.535 363.988C368.535 368.125 371.887 371.48 376.027 371.48Z" fill="#2ABFB0"/>
<path d="M421.137 371.48H452.27C456.406 371.48 459.762 368.125 459.762 363.988C459.762 359.848 456.406 356.492 452.27 356.492H421.137C416.996 356.492 413.641 359.848 413.641 363.988C413.641 368.125 416.996 371.48 421.137 371.48Z" fill="#2ABFB0"/>
<path d="M481.895 356.492H472.332C468.195 356.492 464.84 359.848 464.84 363.988C464.84 368.125 468.195 371.48 472.332 371.48H481.895C486.035 371.48 489.391 368.125 489.391 363.988C489.391 359.848 486.035 356.492 481.895 356.492Z" fill="#2ABFB0"/>
<path d="M376.027 405.176H413.641C417.781 405.176 421.137 401.82 421.137 397.68C421.137 393.543 417.781 390.188 413.641 390.188H376.027C371.887 390.188 368.535 393.543 368.535 397.68C368.535 401.82 371.887 405.176 376.027 405.176Z" fill="#2ABFB0"/>
<path d="M445.094 390.188H434.902C430.766 390.188 427.41 393.543 427.41 397.68C427.41 401.82 430.766 405.176 434.902 405.176H445.094C449.23 405.176 452.586 401.82 452.586 397.68C452.586 393.543 449.23 390.188 445.094 390.188Z" fill="#2ABFB0"/>
<path d="M481.895 390.188H464.137C460 390.188 456.645 393.543 456.645 397.68C456.645 401.82 460 405.176 464.137 405.176H481.895C486.035 405.176 489.391 401.82 489.391 397.68C489.391 393.543 486.035 390.188 481.895 390.188Z" fill="#2ABFB0"/>
</svg>

