<svg width="512" height="512" viewBox="0 0 512 512" fill="none" xmlns="http://www.w3.org/2000/svg">
<path d="M390.51 0H43.39C19.4387 0.0277334 0.0282038 19.1147 2.63591e-07 42.6668V315.734C-0.00216924 335.196 13.388 352.191 32.5512 357.053L36.8902 340.532C25.3886 337.616 17.3517 327.415 17.356 315.734V42.6668C17.356 28.5281 29.0116 17.0667 43.39 17.0667H390.51C404.888 17.0667 416.544 28.5281 416.544 42.6668V51.2002H433.9V42.6668C433.872 19.1147 414.461 0.0277334 390.51 0Z" fill="#2ABFB0"/>
<path d="M52.068 34.1335H34.712V51.2003H52.068V34.1335Z" fill="#2ABFB0"/>
<path d="M86.7799 34.1335H69.424V51.2003H86.7799V34.1335Z" fill="#2ABFB0"/>
<path d="M121.492 34.1335H104.136V51.2003H121.492V34.1335Z" fill="#2ABFB0"/>
<path d="M509.459 471.835L427.148 390.896C431.472 383.307 434.93 375.271 437.458 366.935H451.256V349.868H441.189C444.458 329.212 441.938 308.071 433.9 288.718V204.801H416.544V259.141C411.39 252.668 405.575 246.732 399.188 241.426V170.667H381.832V229.496C376.277 226.331 370.472 223.605 364.476 221.347V136.534H347.12V216.167C341.401 214.953 335.601 214.152 329.764 213.769V153.601H312.408V213.769C306.571 214.152 300.771 214.953 295.052 216.167V187.734H277.696V221.347C271.699 223.605 265.896 226.331 260.34 229.496V179.201H242.984V241.426C236.597 246.732 230.782 252.668 225.628 259.141V196.267H208.272V288.718C200.234 308.071 197.714 329.212 200.982 349.868H86.78V366.935H204.714C223.747 430.062 291.218 466.065 355.415 447.349C368.065 443.66 380.019 437.967 390.805 430.491L471.155 509.502C474.543 512.833 480.037 512.833 483.425 509.502L509.459 483.902C512.847 480.569 512.847 475.168 509.459 471.835ZM321.086 435.202C263.599 435.141 217.012 389.331 216.95 332.801C216.95 276.248 263.574 230.401 321.086 230.401C378.598 230.401 425.222 276.248 425.222 332.801C425.222 389.355 378.598 435.202 321.086 435.202ZM477.29 491.402L404.291 419.62C409.02 415.225 413.387 410.469 417.351 405.395L491.053 477.868L477.29 491.402Z" fill="#2ABFB0"/>
<path d="M321.086 247.468C273.158 247.468 234.306 285.672 234.306 332.801C234.306 379.93 273.158 418.135 321.086 418.135C369.013 418.135 407.866 379.93 407.866 332.801C407.814 285.694 368.992 247.519 321.086 247.468ZM321.086 401.068C296.315 401.037 273.437 388.029 261.052 366.935H381.12C368.735 388.029 345.857 401.037 321.086 401.068ZM253.944 349.868C246.962 323.884 256.285 296.3 277.696 279.596V332.801H295.052V269.56C300.617 267.346 306.452 265.855 312.408 265.123V332.801H329.764V265.123C335.72 265.855 341.555 267.346 347.12 269.56V332.801H364.476V279.596C385.887 296.3 395.21 323.884 388.228 349.868H253.944Z" fill="#2ABFB0"/>
<path d="M442.578 68.2668H95.458C71.5067 68.2946 52.0962 87.3816 52.068 110.934V384.001C52.0962 407.553 71.5067 426.64 95.458 426.668H208.272V409.601H95.458C81.0796 409.601 69.424 398.14 69.424 384.001V110.934C69.424 96.7949 81.0796 85.3336 95.458 85.3336H442.578C456.956 85.3336 468.612 96.7949 468.612 110.934V384.001C468.611 390.236 466.297 396.255 462.103 400.932L475.12 412.221C482.115 404.43 485.972 394.394 485.968 384.001V110.934C485.94 87.3816 466.529 68.2946 442.578 68.2668Z" fill="#2ABFB0"/>
<path d="M104.136 102.4H86.78V119.467H104.136V102.4Z" fill="#2ABFB0"/>
<path d="M138.848 102.4H121.492V119.467H138.848V102.4Z" fill="#2ABFB0"/>
<path d="M173.56 102.4H156.204V119.467H173.56V102.4Z" fill="#2ABFB0"/>
<path d="M121.492 281.601H104.136V332.801H121.492V281.601Z" fill="#2ABFB0"/>
<path d="M156.204 230.401H138.848V332.801H156.204V230.401Z" fill="#2ABFB0"/>
<path d="M190.916 256.001H173.56V332.801H190.916V256.001Z" fill="#2ABFB0"/>
</svg>
